<svg xmlns="http://www.w3.org/2000/svg" width="576" height="96" viewBox="0 0 576 96" role="img" aria-label="Placeholder jumping sprite strip">
  <defs>
    <style>
      .line { stroke: #ffd86a; stroke-width: 6; stroke-linecap: round; stroke-linejoin: round; fill: none; }
      .head { fill: #ff9f6a; }
      .ground { stroke: rgba(255,255,255,0.16); stroke-width: 2; }
    </style>
  </defs>

  <g transform="translate(0 0)">
    <line class="ground" x1="12" y1="86" x2="84" y2="86" />
    <circle class="head" cx="48" cy="28" r="8" />
    <line class="line" x1="48" y1="38" x2="48" y2="60" />
    <line class="line" x1="48" y1="44" x2="36" y2="52" />
    <line class="line" x1="48" y1="44" x2="60" y2="52" />
    <line class="line" x1="48" y1="60" x2="40" y2="76" />
    <line class="line" x1="48" y1="60" x2="56" y2="76" />
  </g>

  <g transform="translate(96 0)">
    <line class="ground" x1="12" y1="86" x2="84" y2="86" />
    <circle class="head" cx="48" cy="22" r="8" />
    <line class="line" x1="48" y1="32" x2="48" y2="54" />
    <line class="line" x1="48" y1="38" x2="34" y2="30" />
    <line class="line" x1="48" y1="38" x2="62" y2="30" />
    <line class="line" x1="48" y1="54" x2="40" y2="66" />
    <line class="line" x1="48" y1="54" x2="58" y2="62" />
  </g>

  <g transform="translate(192 0)">
    <line class="ground" x1="12" y1="86" x2="84" y2="86" />
    <circle class="head" cx="48" cy="16" r="8" />
    <line class="line" x1="48" y1="26" x2="48" y2="48" />
    <line class="line" x1="48" y1="32" x2="34" y2="24" />
    <line class="line" x1="48" y1="32" x2="62" y2="24" />
    <line class="line" x1="48" y1="48" x2="42" y2="60" />
    <line class="line" x1="48" y1="48" x2="56" y2="58" />
  </g>

  <g transform="translate(288 0)">
    <line class="ground" x1="12" y1="86" x2="84" y2="86" />
    <circle class="head" cx="48" cy="20" r="8" />
    <line class="line" x1="48" y1="30" x2="48" y2="52" />
    <line class="line" x1="48" y1="36" x2="36" y2="28" />
    <line class="line" x1="48" y1="36" x2="60" y2="28" />
    <line class="line" x1="48" y1="52" x2="38" y2="64" />
    <line class="line" x1="48" y1="52" x2="58" y2="62" />
  </g>

  <g transform="translate(384 0)">
    <line class="ground" x1="12" y1="86" x2="84" y2="86" />
    <circle class="head" cx="48" cy="26" r="8" />
    <line class="line" x1="48" y1="36" x2="48" y2="58" />
    <line class="line" x1="48" y1="42" x2="35" y2="48" />
    <line class="line" x1="48" y1="42" x2="61" y2="48" />
    <line class="line" x1="48" y1="58" x2="40" y2="72" />
    <line class="line" x1="48" y1="58" x2="56" y2="72" />
  </g>

  <g transform="translate(480 0)">
    <line class="ground" x1="12" y1="86" x2="84" y2="86" />
    <circle class="head" cx="48" cy="28" r="8" />
    <line class="line" x1="48" y1="38" x2="48" y2="60" />
    <line class="line" x1="48" y1="44" x2="36" y2="52" />
    <line class="line" x1="48" y1="44" x2="60" y2="52" />
    <line class="line" x1="48" y1="60" x2="40" y2="76" />
    <line class="line" x1="48" y1="60" x2="56" y2="76" />
  </g>
</svg>
